<svg width="1462" height="1370" viewBox="0 0 1462 1370" fill="none" xmlns="http://www.w3.org/2000/svg">
<path d="M3.78652 5.20922C23.6322 17.7976 65.7423 42.8345 75.4166 42.2746C85.029 41.7182 116.43 71.0705 131.216 86.0992C131.409 86.2957 131.613 86.4527 131.852 86.5899C150.854 97.4951 186.35 120.984 179.038 129.334C171.75 137.657 206.402 147.247 225.15 151.118C225.511 151.193 225.834 151.323 226.144 151.521C251.871 167.983 300.321 201.437 291.856 205.892C281.211 211.493 309.835 229.278 322.116 237.541C331.622 243.937 351.918 248.401 361.783 249.995C362.405 250.095 362.97 250.37 363.414 250.818C375.434 262.964 399.966 295.968 407.156 336.644C414.483 378.095 376.757 426.641 356.979 445.732L344.611 457.736C344.362 457.978 344.161 458.252 344.009 458.565C335.8 475.473 321.5 508.617 328.273 509.542C336.818 510.709 401.966 602.156 440.627 606.732C471.42 610.376 508.351 643.873 523.177 660.383C523.311 660.533 523.448 660.658 523.609 660.778C544.164 676.1 581.866 706.367 570.07 706.255C555.269 706.115 600.983 726.235 606.632 717.599C612.28 708.964 620.586 677.409 607.791 666.019C598.819 658.032 593.305 648.458 591.01 643.219C590.506 642.067 590.873 640.743 591.838 639.937L611.587 623.455C612.031 623.084 612.358 622.593 612.53 622.041L623.517 586.63C623.833 585.61 624.668 584.85 625.686 584.53C632.275 582.46 642.177 576.295 639.293 564.492C636.298 552.241 633.8 522.147 632.79 506.699C632.706 505.411 633.459 504.229 634.655 503.745L649.431 497.762C650.576 497.299 651.887 497.584 652.736 498.481L668.09 514.71C668.791 515.451 669.821 515.785 670.824 515.597L694.239 511.193C695.331 510.987 696.22 510.195 696.55 509.133L709.326 467.956C709.412 467.68 709.532 467.425 709.694 467.186C717.225 456.083 734.88 437.836 747.226 451.064C759.559 464.278 769.017 488.004 772.332 498.589C772.411 498.84 772.511 499.06 772.652 499.282C782.097 514.168 807.527 545.458 835.488 554.134C863.163 562.721 878.982 586.733 883.719 598.254C883.884 598.655 884.123 599.01 884.436 599.31L948.03 660.286C953.992 666.588 967.811 679.78 975.394 682.133C982.232 684.254 1009.58 712.851 1026.22 731.035C1028.05 733.03 1026.46 736.47 1023.8 736.943C1018.23 737.933 1012.71 740.732 1013.08 747.251C1013.79 759.341 1036.86 790.244 1061.46 787.49C1078.84 785.546 1074.72 797.209 1069.1 805.407C1068.01 807.006 1068.51 809.255 1070.23 810.147C1082.73 816.631 1103.88 829.903 1109.7 842.527C1115.21 854.466 1123.79 846.787 1128.91 839.307C1130.07 837.627 1132.5 837.325 1133.88 838.82C1159.79 866.827 1205.69 918.525 1201.98 923.098C1197.17 929.026 1271.93 1008.62 1264.47 1037.46C1259.41 1057 1255.11 1069.76 1252.87 1075.59C1252.32 1077.01 1250.76 1077.73 1249.3 1077.28L1219.03 1067.89C1217.66 1067.46 1216.17 1068.06 1215.52 1069.35C1207.26 1085.52 1196.58 1113.03 1212.6 1108.93C1228.87 1104.76 1255.82 1118.06 1268.35 1125.86C1269.07 1126.31 1269.55 1127.05 1269.68 1127.89C1271.24 1137.97 1273.58 1159.79 1271.86 1176.29C1269.63 1197.85 1265.94 1214.52 1273.04 1210.78C1278.64 1207.84 1323.94 1202.38 1346.78 1199.92C1347.39 1199.85 1347.97 1199.97 1348.5 1200.26C1367.72 1210.85 1401.61 1234.29 1389.49 1246.92C1377.2 1259.73 1408.26 1321.99 1425.32 1351.53C1427.98 1357.3 1438.75 1367.57 1460.53 1362.45" stroke="url(#paint0_linear_1373_3)" stroke-width="12"/>
<defs>
<linearGradient id="paint0_linear_1373_3" x1="11.3794" y1="15.781" x2="935.621" y2="2029.13" gradientUnits="userSpaceOnUse">
<stop stop-color="#009CFF"/>
<stop offset="0.5" stop-color="#76A195"/>
<stop offset="1" stop-color="#F9A620"/>
</linearGradient>
</defs>
</svg>
